<svg xmlns="http://www.w3.org/2000/svg" viewBox="0 0 96 96"><defs><linearGradient id="g" x1="0" y1="0" x2="1" y2="1"><stop stop-color="#66efff"/><stop offset="1" stop-color="#4c75ff"/></linearGradient><filter id="glow"><feGaussianBlur stdDeviation="2.5" result="b"/><feMerge><feMergeNode in="b"/><feMergeNode in="SourceGraphic"/></feMerge></filter></defs><path d="M27 14h36l12 12v56H27c-6 0-10-4-10-10V24c0-6 4-10 10-10Z" fill="#071a38" stroke="url(#g)" stroke-width="4" filter="url(#glow)"/><path d="M63 14v15h12" fill="none" stroke="#6eeeff" stroke-width="4"/><path d="M34 42h26M34 53h20M34 64h13" stroke="#79dfff" stroke-width="4" stroke-linecap="round"/><circle cx="65" cy="64" r="12" fill="#0b2b56" stroke="#7df2ff" stroke-width="4"/><path d="m73 73 9 9" stroke="#7df2ff" stroke-width="5" stroke-linecap="round"/><path d="M61 60c1-4 8-5 9-1 1 3-4 4-4 7" fill="none" stroke="#fff" stroke-width="3" stroke-linecap="round"/><circle cx="66" cy="70" r="2" fill="#fff"/></svg>